<?xml version="1.0" encoding="UTF-8"?>
<svg width="34px" height="34px" viewBox="0 0 34 34" version="1.1" xmlns="http://www.w3.org/2000/svg" xmlns:xlink="http://www.w3.org/1999/xlink">
    <!-- Generator: Sketch 51.3 (57544) - http://www.bohemiancoding.com/sketch -->
    <title>Combined Shape</title>
    <desc>Created with Sketch.</desc>
    <defs></defs>
    <g id="Paul's-website" stroke="none" stroke-width="1" fill="none" fill-rule="evenodd" fill-opacity="0.8">
        <g id="Desktop-HD" transform="translate(-1311.000000, -199.000000)" fill="#E0E4F4" fill-rule="nonzero">
            <g id="Icons" transform="translate(1288.000000, 81.000000)">
                <path d="M39.9992917,118 C30.6110417,118 23,125.640792 23,135.068708 C23,142.608208 27.8705,149.005167 34.6265833,151.261917 C35.4765833,151.419167 35.7875417,150.892167 35.7875417,150.44025 C35.7875417,150.034375 35.7726667,148.96125 35.7634583,147.5375 C31.034625,148.568833 30.0365833,145.249583 30.0365833,145.249583 C29.2645,143.277583 28.1502917,142.752708 28.1502917,142.752708 C26.606125,141.69375 28.2671667,141.715 28.2671667,141.715 C29.972125,141.835417 30.8695833,143.473792 30.8695833,143.473792 C32.3875417,146.082583 34.849,145.329625 35.818,144.891875 C35.9717083,143.789 36.4115833,143.03675 36.8975,142.610333 C33.1220833,142.178958 29.154,140.715542 29.154,134.1755 C29.154,132.312583 29.8155833,130.788958 30.9035833,129.595417 C30.728625,129.163333 30.1456667,127.428625 31.0700417,125.078375 C31.0700417,125.078375 32.4973333,124.620083 35.7450417,126.827958 C37.1015,126.449708 38.555,126.260583 40.0007083,126.2535 C41.445,126.260583 42.8992083,126.449708 44.2577917,126.827958 C47.5019583,124.620083 48.927125,125.078375 48.927125,125.078375 C49.8550417,127.428625 49.271375,129.163333 49.0964167,129.595417 C50.1858333,130.788958 50.843875,132.311875 50.843875,134.1755 C50.843875,140.731833 46.8694167,142.174708 43.0826667,142.597583 C43.6918333,143.124583 44.2365417,144.165125 44.2365417,145.758167 C44.2365417,148.039 44.2152917,149.879958 44.2152917,150.44025 C44.2152917,150.896417 44.5212917,151.427667 45.3840417,151.259792 C52.13375,148.998792 57,142.606083 57,135.068708 C57,125.640792 49.38825,118 39.9992917,118" id="Combined-Shape"></path>
            </g>
        </g>
    </g>
</svg>
