<?xml version="1.0" encoding="UTF-8"?>
<svg width="27px" height="27px" viewBox="0 0 27 27" version="1.1" xmlns="http://www.w3.org/2000/svg" xmlns:xlink="http://www.w3.org/1999/xlink">
    <!-- Generator: Sketch 51.3 (57544) - http://www.bohemiancoding.com/sketch -->
    <title>Combined Shape</title>
    <desc>Created with Sketch.</desc>
    <defs></defs>
    <g id="Paul's-website" stroke="none" stroke-width="1" fill="none" fill-rule="evenodd" fill-opacity="0.8">
        <g id="Desktop-HD" transform="translate(-1316.000000, -81.000000)" fill="#E0E4F4" fill-rule="nonzero">
            <g id="Icons" transform="translate(1288.000000, 81.000000)">
                <path d="M55,16.0544375 L55,26.1403593 L49.1037749,26.1402614 L49.1037749,16.7314507 C49.1037749,14.3681178 48.2534784,12.7542059 46.1169318,12.7542059 C44.489458,12.7542059 43.5209469,13.8421825 43.093677,14.8940531 C42.9369785,15.2688125 42.8982973,15.7904425 42.8982973,16.3185304 L42.8982973,26.1403593 L37,26.1403593 C37,26.1403593 37.0794347,10.2034933 37,8.55367102 L42.8982973,8.55367102 L42.8982973,11.0466531 C42.8876402,11.0658314 42.8704705,11.0847161 42.859616,11.1038944 L42.8982973,11.1038944 L42.8982973,11.0466531 C43.6820858,9.85026045 45.0798404,8.14035928 48.2126262,8.14035928 C52.0926903,8.14035928 55,10.654868 55,16.0544375 Z M31.0184328,0.140359281 C32.8423464,0.140359281 33.9650089,1.43763308 34,3.14050421 C34,4.80772374 32.8423464,6.14035928 30.9815672,6.14035928 L30.9485398,6.14035928 C29.1576536,6.14035928 28,4.80762712 28,3.14050421 C28,1.43753646 29.1925555,0.140359281 31.0184328,0.140359281 Z M28,26.1403593 L28,8.14035928 L34,8.14035928 L34,26.1403593 L28,26.1403593 Z" id="Combined-Shape"></path>
            </g>
        </g>
    </g>
</svg>
