<?xml version="1.0" encoding="UTF-8"?>
<svg width="25px" height="31px" viewBox="0 0 25 31" version="1.1" xmlns="http://www.w3.org/2000/svg" xmlns:xlink="http://www.w3.org/1999/xlink">
    <!-- Generator: Sketch 51.3 (57544) - http://www.bohemiancoding.com/sketch -->
    <title>Combined Shape</title>
    <desc>Created with Sketch.</desc>
    <defs></defs>
    <g id="Paul's-website" stroke="none" stroke-width="1" fill="none" fill-rule="evenodd" fill-opacity="0.8">
        <g id="Desktop-HD" transform="translate(-1316.000000, -441.000000)" fill="#E0E4F4" fill-rule="nonzero">
            <g id="Icons" transform="translate(1288.000000, 56.000000)">
                <path d="M43.4166667,385.916667 L52.1666667,394.666667 L52.1666667,412.166667 C52.1666667,413.770833 50.8541667,415.083333 49.25,415.083333 L31.7354167,415.083333 C30.13125,415.083333 28.8333333,413.770833 28.8333333,412.166667 L28.8479167,388.833333 C28.8479167,387.229167 30.1458333,385.916667 31.75,385.916667 L43.4166667,385.916667 Z M46.3333333,409.25 L46.3333333,406.333333 L34.6666667,406.333333 L34.6666667,409.25 L46.3333333,409.25 Z M46.3333333,403.416667 L46.3333333,400.5 L34.6666667,400.5 L34.6666667,403.416667 L46.3333333,403.416667 Z M41.9583333,396.125 L49.9791667,396.125 L41.9583333,388.104167 L41.9583333,396.125 Z" id="Combined-Shape"></path>
            </g>
        </g>
    </g>
</svg>
